PathFileType	4	(X/Y/Z)	C:/Users/beibeiliu/ov580/test_trc/capture2\sequence.19_training_dense_right.trc
DataRate	CameraRate	NumFrames	NumMarkers	Units	OrigDataRate	OrigDataStartFrame	OrigNumFrames
120	120	12	19	mm	120	88	351
Frame#	Time	ThumbCMC			ThumbMCP			ThumbIP			ThumbTip			IndexMCP			IndexPIP			IndexTip			MiddleMCP			MiddlePIP			MiddleTip			RingMCP			RingPIP			RingTip			PinkyMCP			PinkyPIP			PinkyTip			BackHand1			BackHand2			BackHand3	
		X0	Y0	Z0	X1	Y1	Z1	X2	Y2	Z2	X3	Y3	Z3	X4	Y4	Z4	X5	Y5	Z5	X6	Y6	Z6	X7	Y7	Z7	X8	Y8	Z8	X9	Y9	Z9	X10	Y10	Z10	X11	Y11	Z11	X12	Y12	Z12	X13	Y13	Z13	X14	Y14	Z14	X15	Y15	Z15	X16	Y16	Z16	X17	Y17	Z17	X18	Y18	Z18	
87	0.725	134.478	88.8903	27.3785	109.852	98.0499	5.04848	94.9771	108.388	-16.0187	85.1385	105.347	-39.2811	161.018	75.1526	-43.7967	154.551	75.726	-69.9099	135.51	75.7071	-92.5896	161.377	54.1049	-51.2431	148.283	53.2357	-77.6367	117.122	50.9609	-90.772	156.452	34.4723	-46.3269	141.624	31.1341	-72.847	114.865	39.1634	-84.065	146.374	14.0967	-32.6036	136.55	12.6761	-57.8558	111.781	17.8567	-75.7729	163.655	32.9192	7.42484	162.88	33.1029	34.1999	165.505	63.3028	21.2437	
88	0.733333	134.109	93.1006	30.134	108.58	104.808	9.7651	96.6366	110.702	-11.98	86.572	107.557	-35.9568	160.057	80.3378	-41.2803	153.036	80.1584	-72.2049	132.354	81.4945	-92.8595	161.1	56.5437	-49.7776	149.26	56.3602	-76.2547	116.718	59.9528	-91.5771	155.681	43.106	-47.1938	141.001	40.2378	-73.6629	110.621	43.8982	-85.1138	147.172	23.1385	-31.8148	135.914	17.7358	-59.7757	111.766	26.3552	-77.6098	161.742	41.1799	3.78216	163.747	39.5093	32.9841	166.407	69.5966	20.2857	
89	0.741667	134.704	98.3977	26.2599	109.318	107.872	11.2973	95.5942	118.34	-11.6797	86.4072	114.41	-31.3106	160.102	88.8924	-40.2134	155.102	92.036	-67.5893	133.414	85.0634	-92.129	160.434	64.7122	-47.1516	147.813	66.4146	-77.6361	115.374	69.3584	-90.1307	156.419	49.0911	-46.665	142.904	44.6151	-71.1635	115.719	53.7939	-84.4209	147.446	26.789	-33.1216	139.606	26.5126	-57.9001	117.41	31.1684	-77.1505	162.478	43.1939	7.53481	163.306	40.6631	33.6062	167.825	76.4004	18.9096	
90	0.75	134.727	104.955	31.2111	109.588	116.044	11.3941	96.1715	125.647	-11.4978	84.973	124.677	-31.9685	162.417	99.6442	-39.6613	155.379	97.0883	-66.1621	136.253	97.4601	-88.0833	161.743	73.0923	-44.8211	149.299	76.1263	-75.5899	119.761	76.9278	-89.4054	156.965	53.8469	-43.4922	141.552	55.8098	-73.349	112.895	61.8679	-83.6372	148.009	36.6487	-32.2269	138.597	33.0411	-59.7043	119.442	41.8979	-75.9101	163.605	52.6375	4.46534	164.131	49.95	38.4052	168.765	83.0463	21.0109	
91	0.758333	136.254	106.844	31.774	110.531	122.056	13.3278	97.0983	128.769	-3.23781	86.0423	133.022	-26.7023	162.564	104.115	-37.2723	155.027	109.966	-67.1939	135.345	108.442	-86.5663	162.44	82.5407	-45.7647	147.971	85.6197	-77.1293	117.998	88.0741	-88.1071	158.192	64.649	-45.2988	141.783	63.9083	-74.265	116.294	73.4139	-82.1362	149.175	41.8314	-33.1825	139.774	45.4664	-61.728	121.068	53.2702	-77.3134	164.958	57.092	3.95378	165.073	51.5892	36.0318	167.709	86.6916	25.0186	
92	0.766667	135.452	114.177	32.8764	111.035	122.8	16.613	96.0457	137.366	-0.26665	87.5822	135.967	-24.0388	163.058	116.451	-33.8442	156.672	121.996	-64.3239	135.72	119.53	-83.5249	164.347	92.8934	-43.9517	150.532	98.8193	-73.764	121.234	96.2161	-85.9113	158.431	75.5791	-44.3521	146.498	75.0673	-70.6029	112.049	83.5614	-81.4715	152.155	52.8244	-37.3764	144.95	56.3056	-59.3592	122.371	67.1072	-79.0654	165.595	62.9672	5.60275	165.445	55.0683	36.7169	166.37	91.6099	26.0693	
93	0.775	135.343	118.329	36.5952	108.78	130.423	22.0512	95.9651	143.992	-0.86153	85.0506	147.796	-20.9476	164.033	125.123	-29.1113	159.062	134.671	-57.0698	135.362	131.292	-79.2326	165.595	104.818	-38.9692	151.086	106.894	-72.6885	120.223	111.766	-82.9585	159.434	84.7791	-43.9402	146.782	87.5937	-68.4887	119.839	97.2008	-78.5345	152.547	63.5611	-35.627	145.213	66.1839	-61.2974	123.184	78.3031	-78.2171	166.532	68.5301	4.52321	164.495	64.3683	39.1381	169.43	98.6102	25.77	
94	0.783333	132.978	120.722	43.0103	107.395	133.876	27.6227	93.2201	150.678	5.49544	84.6832	151.041	-19.8905	164.038	132.765	-26.1208	157.647	143.916	-54.4692	137.311	148.671	-72.2881	166.622	114.233	-37.3089	152.407	120.618	-67.8611	120.686	123.886	-79.5266	161.648	93.7793	-41.9329	147.18	97.856	-66.8111	118.597	105.647	-77.0974	152.892	75.3796	-31.3482	146.972	80.8419	-58.8126	123.3	92.675	-77.5258	165.512	76.3241	7.12836	164.788	68.6068	34.1331	168.625	104.917	33.8948	
95	0.791667	130.043	129.228	45.8668	104.539	141.158	31.192	90.2026	156.919	8.16174	84.8741	155.994	-13.8004	163.432	144.741	-16.9717	157.484	155.185	-47.0928	136.993	160.129	-65.3091	166.199	121.077	-31.7004	155.174	133.137	-61.906	124.106	134.758	-75.4355	161.817	105.671	-35.6738	148.71	112.225	-62.579	119.029	119.588	-72.3036	154.918	85.7927	-31.2809	145.899	92.2236	-58.8184	124.987	102.96	-72.5341	167.302	86.3132	11.4092	165.209	74.7651	37.3893	166.924	109.272	32.6015	
96	0.8	127.561	135.24	49.6881	103.62	143.864	29.5679	89.4098	158.834	14.6579	81.6368	163.504	-10.1821	162.334	155.471	-11.6107	157.461	168.449	-36.9658	137.253	167.717	-60.1636	166.41	136.792	-30.3395	154.614	142.104	-58.4252	126.159	148.413	-70.182	160.986	113.484	-32.9514	145.463	125.315	-61.299	117.383	136	-66.3758	155.372	91.0696	-29.9516	146.611	107.062	-54.667	126.677	114.885	-70.7363	165.036	94.2305	15.5002	163.863	83.6305	39.6691	164.521	115.466	41.0981	
97	0.808333	122.636	138.378	53.6129	100.777	146.904	35.0059	83.9605	164.877	21.7204	79.0228	167.695	-5.93847	160.408	160.63	-6.4573	154.444	175.474	-32.0953	134.267	178.674	-53.5948	165.857	146.895	-24.6542	154.648	156.331	-50.6617	122.308	158.75	-65.3267	161.313	126.529	-32.0948	148.412	133.951	-56.417	117.731	141.68	-64.2568	154.828	105.107	-26.6855	145.014	115.332	-54.7756	121.602	127.632	-67.5997	164.301	100.492	14.3298	163.813	88.2323	40.4006	161.531	122.935	43.1005	
98	0.816667	119.347	138.527	59.4553	95.4459	148.996	41.9694	83.1287	164.622	23.3713	75.0932	173.758	-2.52235	157.689	166.353	-1.39461	153.313	180.703	-27.5708	131.575	189.675	-48.2313	164.428	151.667	-20.1076	151.831	164.03	-48.6411	124.075	168.03	-59.9303	160.185	132.187	-25.3413	148.965	143.761	-51.2355	119.978	150.552	-60.2969	155.169	108.197	-25.5422	145.927	128.218	-49.2259	122.288	136.92	-61.0682	162.405	107.632	20.2959	161.379	89.7639	44.1416	158.201	129.374	45.5841	
